<svg width="0" height="0" class="hidden">
  <symbol fill="none" xmlns="http://www.w3.org/2000/svg" viewBox="0 0 24 24" id="map-marker">
    <path d="M20.46 9.63C20.3196 8.16892 19.8032 6.76909 18.9612 5.56682C18.1191 4.36456 16.9801 3.40083 15.655 2.7695C14.3299 2.13816 12.8639 1.86072 11.3997 1.96421C9.93555 2.06769 8.52314 2.54856 7.3 3.36C6.2492 4.06265 5.36706 4.9893 4.71695 6.07339C4.06684 7.15749 3.6649 8.37211 3.54 9.63C3.41749 10.8797 3.57468 12.1409 4.00017 13.3223C4.42567 14.5036 5.1088 15.5755 6 16.46L11.3 21.77C11.393 21.8637 11.5036 21.9381 11.6254 21.9889C11.7473 22.0397 11.878 22.0658 12.01 22.0658C12.142 22.0658 12.2727 22.0397 12.3946 21.9889C12.5164 21.9381 12.627 21.8637 12.72 21.77L18 16.46C18.8912 15.5755 19.5743 14.5036 19.9998 13.3223C20.4253 12.1409 20.5825 10.8797 20.46 9.63ZM16.6 15.05L12 19.65L7.4 15.05C6.72209 14.3721 6.20281 13.5523 5.87947 12.6498C5.55614 11.7472 5.43679 10.7842 5.53 9.83C5.62382 8.86111 5.93177 7.92516 6.43157 7.08985C6.93138 6.25453 7.61056 5.54071 8.42 5C9.48095 4.29524 10.7263 3.9193 12 3.9193C13.2737 3.9193 14.5191 4.29524 15.58 5C16.387 5.53862 17.0647 6.24928 17.5644 7.08094C18.064 7.9126 18.3733 8.84461 18.47 9.81C18.5663 10.7674 18.4484 11.7343 18.125 12.6406C17.8016 13.5468 17.2807 14.3698 16.6 15.05ZM12 6C11.11 6 10.24 6.26392 9.49994 6.75839C8.75992 7.25286 8.18314 7.95566 7.84255 8.77793C7.50195 9.6002 7.41284 10.505 7.58647 11.3779C7.7601 12.2508 8.18869 13.0526 8.81802 13.682C9.44736 14.3113 10.2492 14.7399 11.1221 14.9135C11.995 15.0872 12.8998 14.9981 13.7221 14.6575C14.5443 14.3169 15.2471 13.7401 15.7416 13.0001C16.2361 12.26 16.5 11.39 16.5 10.5C16.4974 9.30734 16.0224 8.16428 15.1791 7.32094C14.3357 6.4776 13.1927 6.00265 12 6ZM12 13C11.5055 13 11.0222 12.8534 10.6111 12.5787C10.2 12.304 9.87952 11.9135 9.6903 11.4567C9.50109 10.9999 9.45158 10.4972 9.54804 10.0123C9.6445 9.52733 9.88261 9.08187 10.2322 8.73224C10.5819 8.38261 11.0273 8.1445 11.5123 8.04804C11.9972 7.95158 12.4999 8.00109 12.9567 8.1903C13.4135 8.37952 13.804 8.69996 14.0787 9.11108C14.3534 9.5222 14.5 10.0056 14.5 10.5C14.5 11.163 14.2366 11.7989 13.7678 12.2678C13.2989 12.7366 12.663 13 12 13Z" fill="#FF5722"></path>
  </symbol>
  <symbol fill="none" xmlns="http://www.w3.org/2000/svg" viewBox="0 0 24 24" id="phone-volume">
    <path d="M19.44 13C19.22 13 18.99 12.93 18.77 12.88C18.3245 12.7818 17.8866 12.6515 17.46 12.49C16.9961 12.3212 16.4861 12.33 16.0283 12.5146C15.5704 12.6992 15.1971 13.0466 14.98 13.49L14.76 13.94C13.786 13.3982 12.891 12.7252 12.1 11.94C11.3147 11.149 10.6418 10.254 10.1 9.27999L10.52 8.99999C10.9633 8.78291 11.3108 8.40952 11.4954 7.95168C11.68 7.49384 11.6888 6.9839 11.52 6.51999C11.3612 6.09241 11.2309 5.65479 11.13 5.20999C11.08 4.98999 11.04 4.75999 11.01 4.52999C10.8885 3.82561 10.5196 3.18773 9.9696 2.73123C9.4196 2.27473 8.72467 2.0296 8.00998 2.03999H5.00998C4.57901 2.03594 4.15223 2.1248 3.75869 2.30052C3.36515 2.47624 3.01409 2.73469 2.72941 3.05827C2.44473 3.38186 2.23311 3.76298 2.10897 4.1757C1.98482 4.58842 1.95106 5.02305 2.00998 5.44999C2.54272 9.63937 4.45601 13.5319 7.44763 16.5126C10.4393 19.4934 14.3387 21.3925 18.53 21.91H18.91C19.6474 21.9111 20.3594 21.6405 20.91 21.15C21.2263 20.867 21.4791 20.5202 21.6514 20.1323C21.8238 19.7444 21.9119 19.3244 21.91 18.9V15.9C21.8977 15.2054 21.6448 14.5365 21.1943 14.0077C20.7439 13.4788 20.1238 13.1226 19.44 13ZM19.94 19C19.9398 19.142 19.9094 19.2823 19.8508 19.4116C19.7921 19.5409 19.7066 19.6563 19.6 19.75C19.4882 19.8465 19.3576 19.9185 19.2164 19.9616C19.0752 20.0046 18.9265 20.0177 18.78 20C15.0349 19.5198 11.5562 17.8065 8.89269 15.1303C6.22917 12.4541 4.53239 8.96733 4.06998 5.21999C4.05406 5.07351 4.06801 4.92532 4.11098 4.78438C4.15395 4.64344 4.22505 4.51268 4.31998 4.39999C4.41369 4.29332 4.52904 4.20783 4.65836 4.14921C4.78767 4.09058 4.92799 4.06017 5.06998 4.05999H8.06998C8.30253 4.05482 8.5296 4.13087 8.71212 4.27506C8.89464 4.41925 9.02119 4.62256 9.06998 4.84999C9.10998 5.12332 9.15998 5.39332 9.21998 5.65999C9.3355 6.18713 9.48924 6.70517 9.67998 7.20999L8.27998 7.85999C8.16028 7.91491 8.0526 7.99294 7.96314 8.08959C7.87367 8.18623 7.80418 8.2996 7.75865 8.42318C7.71312 8.54677 7.69245 8.67812 7.69783 8.80971C7.7032 8.9413 7.73452 9.07054 7.78998 9.18999C9.22918 12.2727 11.7072 14.7508 14.79 16.19C15.0334 16.29 15.3065 16.29 15.55 16.19C15.6747 16.1454 15.7893 16.0764 15.8871 15.9872C15.985 15.8979 16.0641 15.7901 16.12 15.67L16.74 14.27C17.2569 14.4549 17.7846 14.6085 18.32 14.73C18.5866 14.79 18.8566 14.84 19.13 14.88C19.3574 14.9288 19.5607 15.0553 19.7049 15.2378C19.8491 15.4204 19.9252 15.6474 19.92 15.88L19.94 19Z" fill="#FF5722"></path>
  </symbol>
  <symbol fill="none" xmlns="http://www.w3.org/2000/svg" viewBox="0 0 24 24" id="envelope">
    <path d="M19 4H5C4.20435 4 3.44129 4.31607 2.87868 4.87868C2.31607 5.44129 2 6.20435 2 7V17C2 17.7956 2.31607 18.5587 2.87868 19.1213C3.44129 19.6839 4.20435 20 5 20H19C19.7956 20 20.5587 19.6839 21.1213 19.1213C21.6839 18.5587 22 17.7956 22 17V7C22 6.20435 21.6839 5.44129 21.1213 4.87868C20.5587 4.31607 19.7956 4 19 4ZM5 6H19C19.2652 6 19.5196 6.10536 19.7071 6.29289C19.8946 6.48043 20 6.73478 20 7L12 11.88L4 7C4 6.73478 4.10536 6.48043 4.29289 6.29289C4.48043 6.10536 4.73478 6 5 6ZM20 17C20 17.2652 19.8946 17.5196 19.7071 17.7071C19.5196 17.8946 19.2652 18 19 18H5C4.73478 18 4.48043 17.8946 4.29289 17.7071C4.10536 17.5196 4 17.2652 4 17V9.28L11.48 13.85C11.632 13.9378 11.8045 13.984 11.98 13.984C12.1555 13.984 12.328 13.9378 12.48 13.85L20 9.28V17Z" fill="#FF5722"></path>
  </symbol>
  <symbol xmlns="http://www.w3.org/2000/svg" viewBox="0 0 102 22" id="tapsi-logo-white">
    <g fill="#FFF" fill-rule="evenodd">
      <path d="M102 5.946h-3.222v4.28H91.8v-4.28h-3.221v4.28h-5.637a1.878 1.878 0 0 1-1.879-1.872V5.946h-3.221v2.408a1.878 1.878 0 0 1-1.879 1.873 1.878 1.878 0 0 1-1.879-1.873V5.946h-3.221v2.408a1.878 1.878 0 0 1-1.879 1.873h-1.879V5.946h-3.22v4.28h-17.18v3.212h3.758v.535c0 2.656-2.167 4.816-4.831 4.816-2.664 0-4.832-2.16-4.832-4.816v-3.746H37.58v3.746c0 4.426 3.613 8.027 8.053 8.027 4.44 0 8.052-3.6 8.052-8.027v-.535H68.985a5.09 5.09 0 0 0 3.489-1.381 5.09 5.09 0 0 0 3.49 1.38 5.09 5.09 0 0 0 3.489-1.38 5.089 5.089 0 0 0 3.489 1.38H102V5.947z"></path>
      <path d="M84.702 19.297h3.854V22h3.304v-5.946h-7.158zM102 0h-6.561v2.973H102zM26.842 11.297H10.737V5.946h16.105zM26.842 22H0v-5.351h26.842z"></path>
    </g>
  </symbol>
  <symbol fill="none" xmlns="http://www.w3.org/2000/svg" viewBox="0 0 24 24" id="bars">
    <path d="M3 8H21C21.2652 8 21.5196 7.89464 21.7071 7.70711C21.8946 7.51957 22 7.26522 22 7C22 6.73478 21.8946 6.48043 21.7071 6.29289C21.5196 6.10536 21.2652 6 21 6H3C2.73478 6 2.48043 6.10536 2.29289 6.29289C2.10536 6.48043 2 6.73478 2 7C2 7.26522 2.10536 7.51957 2.29289 7.70711C2.48043 7.89464 2.73478 8 3 8ZM21 16H3C2.73478 16 2.48043 16.1054 2.29289 16.2929C2.10536 16.4804 2 16.7348 2 17C2 17.2652 2.10536 17.5196 2.29289 17.7071C2.48043 17.8946 2.73478 18 3 18H21C21.2652 18 21.5196 17.8946 21.7071 17.7071C21.8946 17.5196 22 17.2652 22 17C22 16.7348 21.8946 16.4804 21.7071 16.2929C21.5196 16.1054 21.2652 16 21 16ZM21 11H3C2.73478 11 2.48043 11.1054 2.29289 11.2929C2.10536 11.4804 2 11.7348 2 12C2 12.2652 2.10536 12.5196 2.29289 12.7071C2.48043 12.8946 2.73478 13 3 13H21C21.2652 13 21.5196 12.8946 21.7071 12.7071C21.8946 12.5196 22 12.2652 22 12C22 11.7348 21.8946 11.4804 21.7071 11.2929C21.5196 11.1054 21.2652 11 21 11Z" fill="black"></path>
  </symbol>

  <symbol fill="none" xmlns="http://www.w3.org/2000/svg" viewBox="0 0 24 24" id="multiply">
    <path d="M13.4099 12L19.7099 5.71C19.8982 5.5217 20.004 5.2663 20.004 5C20.004 4.7337 19.8982 4.47831 19.7099 4.29C19.5216 4.1017 19.2662 3.99591 18.9999 3.99591C18.7336 3.99591 18.4782 4.1017 18.2899 4.29L11.9999 10.59L5.70994 4.29C5.52164 4.1017 5.26624 3.99591 4.99994 3.99591C4.73364 3.99591 4.47824 4.1017 4.28994 4.29C4.10164 4.47831 3.99585 4.7337 3.99585 5C3.99585 5.2663 4.10164 5.5217 4.28994 5.71L10.5899 12L4.28994 18.29C4.19621 18.383 4.12182 18.4936 4.07105 18.6154C4.02028 18.7373 3.99414 18.868 3.99414 19C3.99414 19.132 4.02028 19.2627 4.07105 19.3846C4.12182 19.5064 4.19621 19.617 4.28994 19.71C4.3829 19.8037 4.4935 19.8781 4.61536 19.9289C4.73722 19.9797 4.86793 20.0058 4.99994 20.0058C5.13195 20.0058 5.26266 19.9797 5.38452 19.9289C5.50638 19.8781 5.61698 19.8037 5.70994 19.71L11.9999 13.41L18.2899 19.71C18.3829 19.8037 18.4935 19.8781 18.6154 19.9289C18.7372 19.9797 18.8679 20.0058 18.9999 20.0058C19.132 20.0058 19.2627 19.9797 19.3845 19.9289C19.5064 19.8781 19.617 19.8037 19.7099 19.71C19.8037 19.617 19.8781 19.5064 19.9288 19.3846C19.9796 19.2627 20.0057 19.132 20.0057 19C20.0057 18.868 19.9796 18.7373 19.9288 18.6154C19.8781 18.4936 19.8037 18.383 19.7099 18.29L13.4099 12Z" fill="black"></path>
  </symbol>  
</svg>